<svg width="166" height="13" viewBox="0 0 166 13" fill="none" xmlns="http://www.w3.org/2000/svg">
<path d="M9.472 9.632C9.55733 9.632 9.63467 9.66667 9.704 9.736L10.312 10.4C9.84267 10.944 9.272 11.368 8.6 11.672C7.93333 11.976 7.128 12.128 6.184 12.128C5.35733 12.128 4.608 11.9867 3.936 11.704C3.264 11.416 2.69067 11.016 2.216 10.504C1.74133 9.98667 1.37333 9.368 1.112 8.648C0.850667 7.928 0.72 7.136 0.72 6.272C0.72 5.408 0.858667 4.616 1.136 3.896C1.41867 3.176 1.81333 2.55733 2.32 2.04C2.82667 1.52267 3.432 1.12267 4.136 0.839999C4.84533 0.551999 5.62667 0.407999 6.48 0.407999C7.32267 0.407999 8.048 0.538666 8.656 0.799999C9.26933 1.06133 9.81333 1.416 10.288 1.864L9.784 2.576C9.74667 2.62933 9.704 2.67467 9.656 2.712C9.608 2.744 9.53867 2.76 9.448 2.76C9.37867 2.76 9.304 2.736 9.224 2.688C9.14933 2.63467 9.05867 2.57067 8.952 2.496C8.84533 2.42133 8.72 2.34133 8.576 2.256C8.432 2.17067 8.26133 2.09067 8.064 2.016C7.86667 1.94133 7.63733 1.88 7.376 1.832C7.11467 1.77867 6.81333 1.752 6.472 1.752C5.85867 1.752 5.296 1.85867 4.784 2.072C4.27733 2.28 3.84 2.57867 3.472 2.968C3.104 3.35733 2.816 3.832 2.608 4.392C2.40533 4.952 2.304 5.57867 2.304 6.272C2.304 6.98667 2.40533 7.624 2.608 8.184C2.816 8.744 3.096 9.21867 3.448 9.608C3.80533 9.992 4.22667 10.2853 4.712 10.488C5.19733 10.6907 5.72 10.792 6.28 10.792C6.62133 10.792 6.928 10.7733 7.2 10.736C7.472 10.6933 7.72267 10.6293 7.952 10.544C8.18667 10.4587 8.40267 10.352 8.6 10.224C8.80267 10.0907 9.00533 9.93333 9.208 9.752C9.29867 9.672 9.38667 9.632 9.472 9.632ZM29.7771 12H28.5771C28.4385 12 28.3265 11.9653 28.2411 11.896C28.1558 11.8267 28.0918 11.7387 28.0491 11.632L26.9771 8.864H21.8331L20.7611 11.632C20.7238 11.728 20.6598 11.8133 20.5691 11.888C20.4785 11.9627 20.3665 12 20.2331 12H19.0331L23.6171 0.535999H25.1931L29.7771 12ZM22.2651 7.744H26.5451L24.7451 3.08C24.6278 2.792 24.5131 2.432 24.4011 2C24.3425 2.21867 24.2838 2.42133 24.2251 2.608C24.1718 2.78933 24.1185 2.94933 24.0651 3.088L22.2651 7.744ZM45.0921 2.328C45.0441 2.408 44.9935 2.46933 44.9401 2.512C44.8868 2.54933 44.8175 2.568 44.7321 2.568C44.6415 2.568 44.5348 2.52267 44.4121 2.432C44.2948 2.34133 44.1428 2.24267 43.9561 2.136C43.7748 2.024 43.5535 1.92267 43.2921 1.832C43.0361 1.74133 42.7241 1.696 42.3561 1.696C42.0095 1.696 41.7028 1.744 41.4361 1.84C41.1695 1.93067 40.9455 2.056 40.7641 2.216C40.5881 2.376 40.4548 2.56533 40.3641 2.784C40.2735 2.99733 40.2281 3.22933 40.2281 3.48C40.2281 3.8 40.3055 4.06667 40.4601 4.28C40.6201 4.488 40.8281 4.66667 41.0841 4.816C41.3455 4.96533 41.6388 5.096 41.9641 5.208C42.2948 5.31467 42.6308 5.42667 42.9721 5.544C43.3188 5.66133 43.6548 5.79467 43.9801 5.944C44.3108 6.088 44.6041 6.272 44.8601 6.496C45.1215 6.72 45.3295 6.99467 45.4841 7.32C45.6441 7.64533 45.7241 8.04533 45.7241 8.52C45.7241 9.02133 45.6388 9.49333 45.4681 9.936C45.2975 10.3733 45.0468 10.7547 44.7161 11.08C44.3908 11.4053 43.9881 11.6613 43.5081 11.848C43.0335 12.0347 42.4921 12.128 41.8841 12.128C41.1428 12.128 40.4655 11.9947 39.8521 11.728C39.2441 11.456 38.7241 11.0907 38.2921 10.632L38.7401 9.896C38.7828 9.83733 38.8335 9.78933 38.8921 9.752C38.9561 9.70933 39.0255 9.688 39.1001 9.688C39.2121 9.688 39.3401 9.74933 39.4841 9.872C39.6281 9.98933 39.8068 10.12 40.0201 10.264C40.2388 10.408 40.5001 10.5413 40.8041 10.664C41.1135 10.7813 41.4895 10.84 41.9321 10.84C42.3001 10.84 42.6281 10.7893 42.9161 10.688C43.2041 10.5867 43.4468 10.4453 43.6441 10.264C43.8468 10.0773 44.0015 9.856 44.1081 9.6C44.2148 9.344 44.2681 9.05867 44.2681 8.744C44.2681 8.39733 44.1881 8.11467 44.0281 7.896C43.8735 7.672 43.6681 7.48533 43.4121 7.336C43.1561 7.18667 42.8628 7.06133 42.5321 6.96C42.2068 6.85333 41.8708 6.74667 41.5241 6.64C41.1828 6.528 40.8468 6.4 40.5161 6.256C40.1908 6.112 39.9001 5.92533 39.6441 5.696C39.3881 5.46667 39.1801 5.18133 39.0201 4.84C38.8655 4.49333 38.7881 4.06667 38.7881 3.56C38.7881 3.15467 38.8655 2.76267 39.0201 2.384C39.1801 2.00533 39.4095 1.66933 39.7081 1.376C40.0068 1.08267 40.3748 0.848 40.8121 0.672C41.2548 0.495999 41.7615 0.407999 42.3321 0.407999C42.9721 0.407999 43.5561 0.509333 44.0841 0.712C44.6121 0.914666 45.0735 1.208 45.4681 1.592L45.0921 2.328ZM62.7685 0.535999V1.8H57.2645V5.608H61.7205V6.824H57.2645V10.736H62.7685V12H55.7045V0.535999H62.7685ZM89.9671 2.328C89.9191 2.408 89.8685 2.46933 89.8151 2.512C89.7618 2.54933 89.6925 2.568 89.6071 2.568C89.5165 2.568 89.4098 2.52267 89.2871 2.432C89.1698 2.34133 89.0178 2.24267 88.8311 2.136C88.6498 2.024 88.4285 1.92267 88.1671 1.832C87.9111 1.74133 87.5991 1.696 87.2311 1.696C86.8845 1.696 86.5778 1.744 86.3111 1.84C86.0445 1.93067 85.8205 2.056 85.6391 2.216C85.4631 2.376 85.3298 2.56533 85.2391 2.784C85.1485 2.99733 85.1031 3.22933 85.1031 3.48C85.1031 3.8 85.1805 4.06667 85.3351 4.28C85.4951 4.488 85.7031 4.66667 85.9591 4.816C86.2205 4.96533 86.5138 5.096 86.8391 5.208C87.1698 5.31467 87.5058 5.42667 87.8471 5.544C88.1938 5.66133 88.5298 5.79467 88.8551 5.944C89.1858 6.088 89.4791 6.272 89.7351 6.496C89.9965 6.72 90.2045 6.99467 90.3591 7.32C90.5191 7.64533 90.5991 8.04533 90.5991 8.52C90.5991 9.02133 90.5138 9.49333 90.3431 9.936C90.1725 10.3733 89.9218 10.7547 89.5911 11.08C89.2658 11.4053 88.8631 11.6613 88.3831 11.848C87.9085 12.0347 87.3671 12.128 86.7591 12.128C86.0178 12.128 85.3405 11.9947 84.7271 11.728C84.1191 11.456 83.5991 11.0907 83.1671 10.632L83.6151 9.896C83.6578 9.83733 83.7085 9.78933 83.7671 9.752C83.8311 9.70933 83.9005 9.688 83.9751 9.688C84.0871 9.688 84.2151 9.74933 84.3591 9.872C84.5031 9.98933 84.6818 10.12 84.8951 10.264C85.1138 10.408 85.3751 10.5413 85.6791 10.664C85.9885 10.7813 86.3645 10.84 86.8071 10.84C87.1751 10.84 87.5031 10.7893 87.7911 10.688C88.0791 10.5867 88.3218 10.4453 88.5191 10.264C88.7218 10.0773 88.8765 9.856 88.9831 9.6C89.0898 9.344 89.1431 9.05867 89.1431 8.744C89.1431 8.39733 89.0631 8.11467 88.9031 7.896C88.7485 7.672 88.5431 7.48533 88.2871 7.336C88.0311 7.18667 87.7378 7.06133 87.4071 6.96C87.0818 6.85333 86.7458 6.74667 86.3991 6.64C86.0578 6.528 85.7218 6.4 85.3911 6.256C85.0658 6.112 84.7751 5.92533 84.5191 5.696C84.2631 5.46667 84.0551 5.18133 83.8951 4.84C83.7405 4.49333 83.6631 4.06667 83.6631 3.56C83.6631 3.15467 83.7405 2.76267 83.8951 2.384C84.0551 2.00533 84.2845 1.66933 84.5831 1.376C84.8818 1.08267 85.2498 0.848 85.6871 0.672C86.1298 0.495999 86.6365 0.407999 87.2071 0.407999C87.8471 0.407999 88.4311 0.509333 88.9591 0.712C89.4871 0.914666 89.9485 1.208 90.3431 1.592L89.9671 2.328ZM108.388 0.535999V1.84H104.684V12H103.132V1.84H99.4115V0.535999H108.388ZM122.473 10.768C122.948 10.768 123.372 10.688 123.745 10.528C124.118 10.368 124.433 10.144 124.689 9.856C124.95 9.568 125.148 9.224 125.281 8.824C125.42 8.424 125.489 7.984 125.489 7.504V0.535999H127.033V7.504C127.033 8.16533 126.926 8.77867 126.713 9.344C126.505 9.90933 126.204 10.4 125.809 10.816C125.42 11.2267 124.942 11.5493 124.377 11.784C123.812 12.0187 123.177 12.136 122.473 12.136C121.769 12.136 121.134 12.0187 120.569 11.784C120.004 11.5493 119.524 11.2267 119.129 10.816C118.734 10.4 118.43 9.90933 118.217 9.344C118.009 8.77867 117.905 8.16533 117.905 7.504V0.535999H119.449V7.496C119.449 7.976 119.516 8.416 119.649 8.816C119.788 9.216 119.985 9.56 120.241 9.848C120.502 10.136 120.82 10.3627 121.193 10.528C121.572 10.688 121.998 10.768 122.473 10.768ZM147.641 6.272C147.641 7.13067 147.505 7.912 147.233 8.616C146.961 9.32 146.577 9.92267 146.081 10.424C145.585 10.9253 144.99 11.3147 144.297 11.592C143.603 11.864 142.835 12 141.993 12H137.705V0.535999H141.993C142.835 0.535999 143.603 0.674666 144.297 0.952C144.99 1.224 145.585 1.61333 146.081 2.12C146.577 2.62133 146.961 3.224 147.233 3.928C147.505 4.632 147.641 5.41333 147.641 6.272ZM146.049 6.272C146.049 5.568 145.953 4.93867 145.761 4.384C145.569 3.82933 145.297 3.36 144.944 2.976C144.593 2.592 144.166 2.29867 143.665 2.096C143.163 1.89333 142.606 1.792 141.993 1.792H139.265V10.744H141.993C142.606 10.744 143.163 10.6427 143.665 10.44C144.166 10.2373 144.593 9.94667 144.944 9.568C145.297 9.184 145.569 8.71467 145.761 8.16C145.953 7.60533 146.049 6.976 146.049 6.272ZM161.527 7.44V12H159.983V7.44L155.783 0.535999H157.143C157.281 0.535999 157.391 0.570666 157.471 0.639999C157.551 0.709333 157.62 0.794666 157.679 0.896L160.303 5.352C160.409 5.53867 160.497 5.71467 160.567 5.88C160.641 6.04533 160.708 6.208 160.767 6.368C160.825 6.20267 160.889 6.03733 160.959 5.872C161.028 5.70667 161.116 5.53333 161.223 5.352L163.839 0.896C163.887 0.810666 163.951 0.730666 164.031 0.655999C164.116 0.575999 164.225 0.535999 164.359 0.535999H165.735L161.527 7.44Z" fill="black"/>
</svg>
